<?xml version="1.0" standalone="no"?><svg xmlns="http://www.w3.org/2000/svg" viewBox="0 0 1440 320"><path fill="#22668d" fill-opacity="1" d="M0,160L24,160C48,160,96,160,144,176C192,192,240,224,288,234.7C336,245,384,235,432,202.7C480,171,528,117,576,117.3C624,117,672,171,720,192C768,213,816,203,864,181.3C912,160,960,128,1008,128C1056,128,1104,160,1152,186.7C1200,213,1248,235,1296,213.3C1344,192,1392,128,1416,96L1440,64L1440,0L1416,0C1392,0,1344,0,1296,0C1248,0,1200,0,1152,0C1104,0,1056,0,1008,0C960,0,912,0,864,0C816,0,768,0,720,0C672,0,624,0,576,0C528,0,480,0,432,0C384,0,336,0,288,0C240,0,192,0,144,0C96,0,48,0,24,0L0,0Z"></path></svg>