<?xml version="1.0" standalone="no"?><svg xmlns="http://www.w3.org/2000/svg" viewBox="0 0 1440 320"><path fill="#22668d" fill-opacity="0.7" d="M0,96L40,128C80,160,160,224,240,229.3C320,235,400,181,480,149.3C560,117,640,107,720,117.3C800,128,880,160,960,165.3C1040,171,1120,149,1200,149.3C1280,149,1360,171,1400,181.3L1440,192L1440,320L1400,320C1360,320,1280,320,1200,320C1120,320,1040,320,960,320C880,320,800,320,720,320C640,320,560,320,480,320C400,320,320,320,240,320C160,320,80,320,40,320L0,320Z"></path></svg>