<?xml version="1.0" standalone="no"?><svg xmlns="http://www.w3.org/2000/svg" viewBox="0 0 1440 320"><path fill="#22668d" fill-opacity="1" d="M0,160L24,160C48,160,96,160,144,176C192,192,240,224,288,234.7C336,245,384,235,432,202.7C480,171,528,117,576,117.3C624,117,672,171,720,192C768,213,816,203,864,181.3C912,160,960,128,1008,128C1056,128,1104,160,1152,186.7C1200,213,1248,235,1296,213.3C1344,192,1392,128,1416,96L1440,64L1440,320L1416,320C1392,320,1344,320,1296,320C1248,320,1200,320,1152,320C1104,320,1056,320,1008,320C960,320,912,320,864,320C816,320,768,320,720,320C672,320,624,320,576,320C528,320,480,320,432,320C384,320,336,320,288,320C240,320,192,320,144,320C96,320,48,320,24,320L0,320Z"></path></svg>