<?xml version="1.0" encoding="utf-8"?>
<!-- Generator: Adobe Illustrator 27.5.0, SVG Export Plug-In . SVG Version: 6.00 Build 0)  -->
<svg version="1.1" xmlns="http://www.w3.org/2000/svg" xmlns:xlink="http://www.w3.org/1999/xlink" x="0px" y="0px"
	 viewBox="0 0 500 500" style="enable-background:new 0 0 500 500;" xml:space="preserve">
<g id="BACKGROUND">
	<rect style="fill:#FFFFFF;" width="500" height="500"/>
</g>
<g id="OBJECTS">
	<g>
		<linearGradient id="SVGID_1_" gradientUnits="userSpaceOnUse" x1="212.2258" y1="374.4218" x2="320.1713" y2="89.4461">
			<stop  offset="0" style="stop-color:#007DC6"/>
			<stop  offset="1" style="stop-color:#00BEF5"/>
		</linearGradient>
		<circle style="fill:url(#SVGID_1_);" cx="303.649" cy="133.064" r="31.667"/>
		<g>
			
				<linearGradient id="SVGID_00000132046749738484830860000003835654229588655008_" gradientUnits="userSpaceOnUse" x1="331.2138" y1="397.4745" x2="395.1532" y2="191.4481">
				<stop  offset="0.0058" style="stop-color:#5FBD3F"/>
				<stop  offset="1" style="stop-color:#E4E61D"/>
			</linearGradient>
			<circle style="fill:url(#SVGID_00000132046749738484830860000003835654229588655008_);" cx="381.176" cy="236.485" r="19.956"/>
			
				<linearGradient id="SVGID_00000078010412004832532360000016265717290448426127_" gradientUnits="userSpaceOnUse" x1="339.4622" y1="391.0249" x2="400.4717" y2="194.4393">
				<stop  offset="0.0058" style="stop-color:#5FBD3F"/>
				<stop  offset="1" style="stop-color:#E4E61D"/>
			</linearGradient>
			<path style="fill:url(#SVGID_00000078010412004832532360000016265717290448426127_);" d="M439.784,235.503
				c-3.982-3.623-10.183-3.273-13.989,0.533l-16.633,16.633c-7.422,7.422-17.489,11.592-27.985,11.592h0
				c-10.496,0-20.563-4.17-27.985-11.592l-16.633-16.633c-3.807-3.807-10.008-4.157-13.989-0.533
				c-4.251,3.869-4.368,10.456-0.35,14.473l32.263,32.263c0.971,0.972,1.517,2.289,1.517,3.663v47.44v54.979
				c0,5.384,4.137,10.016,9.515,10.269c5.742,0.27,10.482-4.305,10.482-9.987v-50.08c0-2.861,2.32-5.181,5.181-5.181
				c2.861,0,5.181,2.32,5.181,5.181v49.798c0,5.384,4.137,10.016,9.515,10.269c5.742,0.27,10.482-4.305,10.482-9.987v-55.261v-47.44
				c0-1.374,0.546-2.692,1.517-3.663l32.263-32.263C444.152,245.958,444.035,239.371,439.784,235.503z"/>
		</g>
		<g>
			
				<linearGradient id="SVGID_00000012461357407574667970000011551420160990778782_" gradientUnits="userSpaceOnUse" x1="130.3396" y1="198.8918" x2="76.4475" y2="374.8331">
				<stop  offset="0" style="stop-color:#FFD04D"/>
				<stop  offset="1" style="stop-color:#FF9F00"/>
			</linearGradient>
			<circle style="fill:url(#SVGID_00000012461357407574667970000011551420160990778782_);" cx="118.825" cy="236.485" r="19.956"/>
			
				<linearGradient id="SVGID_00000004539398722482287490000002202759570765207451_" gradientUnits="userSpaceOnUse" x1="136.5484" y1="201.7673" x2="85.1294" y2="369.6349">
				<stop  offset="0" style="stop-color:#FFD04D"/>
				<stop  offset="1" style="stop-color:#FF9F00"/>
			</linearGradient>
			<path style="fill:url(#SVGID_00000004539398722482287490000002202759570765207451_);" d="M144.002,285.903
				c0-1.373,0.552-2.688,1.514-3.662l32.268-32.268c4.014-4.014,3.897-10.6-0.352-14.473c-3.979-3.615-10.177-3.275-13.992,0.54
				l-16.633,16.633c-7.419,7.418-17.49,11.585-27.984,11.585s-20.565-4.167-27.984-11.585L74.207,236.04
				c-3.803-3.815-10.013-4.155-13.992-0.54c-4.249,3.873-4.367,10.459-0.352,14.473l32.268,32.268
				c0.974,0.974,1.514,2.289,1.514,3.662v17.971v5.705l-13.182,43.478c-0.54,1.773,0.786,3.568,2.641,3.568h10.541v31.696
				c0,5.388,4.132,10.013,9.52,10.271c5.74,0.27,10.471-4.308,10.471-9.989v-31.978H124v31.696c0,5.388,4.144,10.013,9.52,10.271
				c5.74,0.27,10.482-4.308,10.482-9.989v-31.978h10.529c1.866,0,3.193-1.796,2.653-3.568l-13.182-43.478v-5.705V285.903z"/>
		</g>
		
			<linearGradient id="SVGID_00000021817010575973306080000001361902921668842118_" gradientUnits="userSpaceOnUse" x1="213.6394" y1="83.0899" x2="161.0875" y2="323.8865">
			<stop  offset="0" style="stop-color:#FFB445"/>
			<stop  offset="1" style="stop-color:#FF307E"/>
		</linearGradient>
		<circle style="fill:url(#SVGID_00000021817010575973306080000001361902921668842118_);" cx="202.733" cy="133.064" r="31.667"/>
		
			<linearGradient id="SVGID_00000178174931062426117750000003252992931541833909_" gradientUnits="userSpaceOnUse" x1="163.6701" y1="356.0292" x2="271.6155" y2="71.0537">
			<stop  offset="0" style="stop-color:#007DC6"/>
			<stop  offset="1" style="stop-color:#00BEF5"/>
		</linearGradient>
		<path style="fill:url(#SVGID_00000178174931062426117750000003252992931541833909_);" d="M168.158,193.007L168.158,193.007
			c0-8.762,7.103-15.866,15.866-15.866h93.756v31.731h-93.756C175.261,208.872,168.158,201.769,168.158,193.007z"/>
		
			<linearGradient id="SVGID_00000093140161808463142840000012654720856147539106_" gradientUnits="userSpaceOnUse" x1="219.8576" y1="85.9046" x2="168.4951" y2="321.2512">
			<stop  offset="0" style="stop-color:#FFB445"/>
			<stop  offset="1" style="stop-color:#FF307E"/>
		</linearGradient>
		<path style="fill:url(#SVGID_00000093140161808463142840000012654720856147539106_);" d="M242.686,249.053v-18.118l21.155,29.111
			l24.852-16.73l-40.489-58.238c-3.457-4.972-9.129-7.937-15.186-7.937h-4.272h-36.495c-9.945,0-19.483-3.951-26.516-10.983
			l-33.806-33.806c-6.041-6.041-15.881-6.597-22.2-0.847c-6.746,6.139-6.931,16.591-0.555,22.967l51.197,51.197
			c1.542,1.542,2.408,3.633,2.408,5.813v37.57l-20.924,68.988c-0.856,2.823,1.256,5.671,4.206,5.671h16.717l0,58.575
			c0,8.543,6.565,15.894,15.099,16.296c9.111,0.429,16.633-6.831,16.633-15.848v-59.023h16.442v58.575
			c0,8.543,6.565,15.894,15.099,16.296c9.111,0.429,16.633-6.831,16.633-15.848v-59.023h16.718c2.95,0,5.063-2.848,4.206-5.671
			L242.686,249.053z"/>
		
			<linearGradient id="SVGID_00000144309242464980490720000012440724441116016300_" gradientUnits="userSpaceOnUse" x1="263.4724" y1="393.5325" x2="371.4186" y2="108.5546">
			<stop  offset="0" style="stop-color:#007DC6"/>
			<stop  offset="1" style="stop-color:#00BEF5"/>
		</linearGradient>
		<path style="fill:url(#SVGID_00000144309242464980490720000012440724441116016300_);" d="M396.796,131.505
			c-6.318-5.75-16.153-5.2-22.194,0.841c-8.181,8.181-23.405,23.405-33.814,33.814c-7.032,7.032-16.568,10.981-26.513,10.981H277.78
			c-7.698,0-13.939,6.241-13.939,13.939l0,16.998v78.686l0,95.525c0,8.543,6.565,15.894,15.099,16.296
			c9.111,0.429,16.633-6.831,16.633-15.848v-87.43c0-4.401,3.32-8.263,7.713-8.527c4.771-0.287,8.729,3.497,8.729,8.206v87.304
			c0,8.543,6.565,15.894,15.099,16.296c9.111,0.429,16.633-6.831,16.633-15.848v-95.973v-75.28c0-2.181,0.866-4.272,2.408-5.813
			l51.197-51.197C403.727,148.096,403.542,137.644,396.796,131.505z"/>
	</g>
</g>
</svg>
